SplineFontDB: 3.0
FontName: Jones-it-Bold
FullName: Jones* Bold
FamilyName: Jones*
Weight: Bold
Copyright: 
UComments: "2016-1-29: Created with FontForge (http://fontforge.org)"
Version: 002.000
ItalicAngle: 0
UnderlinePosition: -150
UnderlineWidth: 100
Ascent: 784
Descent: 216
InvalidEm: 0
LayerCount: 2
Layer: 0 0 "Back" 1
Layer: 1 0 "Fore" 0
XUID: [1021 31 -699969567 4970488]
FSType: 0
OS2Version: 2
OS2_WeightWidthSlopeOnly: 0
OS2_UseTypoMetrics: 0
CreationTime: 1454127431
ModificationTime: 1457391760
PfmFamily: 17
TTFWeight: 700
TTFWidth: 5
LineGap: 0
VLineGap: 0
OS2TypoAscent: 784
OS2TypoAOffset: 0
OS2TypoDescent: -216
OS2TypoDOffset: 0
OS2TypoLinegap: 200
OS2WinAscent: 850
OS2WinAOffset: 0
OS2WinDescent: 300
OS2WinDOffset: 0
HheadAscent: 850
HheadAOffset: 0
HheadDescent: -300
HheadDOffset: 0
OS2SubXSize: 650
OS2SubYSize: 600
OS2SubXOff: 0
OS2SubYOff: 75
OS2SupXSize: 650
OS2SupYSize: 600
OS2SupXOff: 0
OS2SupYOff: 350
OS2StrikeYSize: 50
OS2StrikeYPos: 314
OS2CapHeight: 700
OS2XHeight: 520
OS2Vendor: 'PfEd'
Lookup: 5 0 0 "lig" { "lig-1"  } ['calt' ('DFLT' <'dflt' > 'grek' <'dflt' > 'latn' <'dflt' > ) ]
Lookup: 1 0 0 "fi" { "fi-1"  } ['ss01' ('DFLT' <'dflt' > 'grek' <'dflt' > 'latn' <'dflt' > ) ]
Lookup: 258 0 0 "kern" { "kerning" [150,0,2] } ['kern' ('DFLT' <'dflt' > 'grek' <'dflt' > 'latn' <'dflt' > ) ]
MarkAttachClasses: 1
DEI: 91125
KernClass2: 13 10 "kerning"
 3 A L
 5 D O Q
 3 F P
 3 K X
 3 V W
 13 b e h m n o p
 15 a c g q r s u z
 14 d f i j l t fi
 3 k x
 3 v w
 3 R B
 3 T Y
 1 A
 7 C G O Q
 3 T Y
 3 V W
 15 a m n p r s u z
 11 c d e g o q
 18 b f h i j k l t fi
 5 v w y
 1 x

StartChar: E
Encoding: 69 69 0
Width: 670
VWidth: 0
Flags: HMW
AnchorPoint: "ced" 495 0 basechar 0
AnchorPoint: "dot" 365 760 basechar 0
LayerCount: 2
Fore
SplineSet
80 418 m 5
 560 418 l 1
 560 298 l 1
 80 298 l 5
 80 418 l 5
80 700 m 5
 610 700 l 1
 610 580 l 1
 80 580 l 5
 80 700 l 5
80 120 m 5
 610 120 l 1
 610 0 l 1
 80 0 l 5
 80 120 l 5
80 700 m 5
 210 700 l 5
 210 0 l 5
 80 0 l 5
 80 700 l 5
EndSplineSet
EndChar

StartChar: I
Encoding: 73 73 1
Width: 300
VWidth: 0
Flags: HMW
AnchorPoint: "ced" 145 0 basechar 0
AnchorPoint: "dot" 140 760 basechar 0
LayerCount: 2
Fore
SplineSet
85 700 m 1
 215 700 l 1
 215 0 l 1
 85 0 l 1
 85 700 l 1
EndSplineSet
EndChar

StartChar: F
Encoding: 70 70 2
Width: 665
VWidth: 0
Flags: HMW
AnchorPoint: "ced" 125 0 basechar 0
AnchorPoint: "dot" 365 760 basechar 0
LayerCount: 2
Fore
SplineSet
80 398 m 5
 560 398 l 1
 560 278 l 1
 80 278 l 5
 80 398 l 5
80 700 m 5
 610 700 l 1
 610 580 l 1
 80 580 l 5
 80 700 l 5
80 700 m 5
 210 700 l 5
 210 0 l 5
 80 0 l 5
 80 700 l 5
EndSplineSet
EndChar

StartChar: H
Encoding: 72 72 3
Width: 765
VWidth: 0
Flags: HMW
AnchorPoint: "ced" 610 0 basechar 0
AnchorPoint: "dot" 370 760 basechar 0
LayerCount: 2
Fore
SplineSet
550 700 m 5
 680 700 l 5
 680 0 l 5
 550 0 l 5
 550 700 l 5
85 418 m 1
 585 418 l 5
 585 298 l 5
 85 298 l 1
 85 418 l 1
85 700 m 1
 215 700 l 1
 215 0 l 1
 85 0 l 1
 85 700 l 1
EndSplineSet
EndChar

StartChar: L
Encoding: 76 76 4
Width: 655
VWidth: 0
Flags: HMW
AnchorPoint: "ced" 365 0 basechar 0
AnchorPoint: "dot" 385 760 basechar 0
LayerCount: 2
Fore
SplineSet
85 120 m 5
 610 120 l 1
 610 0 l 1
 85 0 l 5
 85 120 l 5
85 700 m 5
 215 700 l 5
 215 0 l 5
 85 0 l 5
 85 700 l 5
EndSplineSet
EndChar

StartChar: T
Encoding: 84 84 5
Width: 690
VWidth: 0
Flags: HMW
AnchorPoint: "ced" 347 0 basechar 0
AnchorPoint: "dot" 345 760 basechar 0
LayerCount: 2
Fore
SplineSet
35 700 m 5
 655 700 l 1
 655 580 l 1
 35 580 l 5
 35 700 l 5
280 700 m 1
 410 700 l 1
 410 0 l 1
 280 0 l 1
 280 700 l 1
EndSplineSet
EndChar

StartChar: O
Encoding: 79 79 7
Width: 850
VWidth: 0
Flags: HMW
AnchorPoint: "ced" 425 0 basechar 0
AnchorPoint: "dot" 425 760 basechar 0
LayerCount: 2
Fore
SplineSet
190 350 m 4
 190 214 284 110 425 110 c 4
 566 110 660 214 660 350 c 4
 660 486 566 590 425 590 c 4
 284 590 190 486 190 350 c 4
60 350 m 4
 60 549 220 710 425 710 c 4
 630 710 790 549 790 350 c 4
 790 151 630 -10 425 -10 c 4
 220 -10 60 151 60 350 c 4
EndSplineSet
EndChar

StartChar: C
Encoding: 67 67 8
Width: 732
VWidth: 0
Flags: HMW
AnchorPoint: "ced" 425 0 basechar 0
AnchorPoint: "dot" 425 760 basechar 0
LayerCount: 2
Fore
SplineSet
180 350 m 0
 180 214 274 110 425 110 c 0
 503 110 559 142 607 198 c 1
 692 113 l 1
 627 38 531 -10 425 -10 c 0
 210 -10 50 151 50 350 c 0
 50 549 210 710 425 710 c 0
 531 710 627 662 692 587 c 1
 608 503 l 5
 560 559 503 590 425 590 c 0
 274 590 180 486 180 350 c 0
EndSplineSet
EndChar

StartChar: A
Encoding: 65 65 9
Width: 800
VWidth: 0
Flags: HMW
AnchorPoint: "ced" 687 0 basechar 0
AnchorPoint: "ring" 400 700 basechar 0
AnchorPoint: "dot" 400 760 basechar 0
LayerCount: 2
Fore
SplineSet
340 700 m 1
 460 700 l 1
 450 690 l 1
 340 690 l 1
 340 700 l 1
184 270 m 1
 596 270 l 1
 596 155 l 1
 184 155 l 1
 184 270 l 1
640 0 m 5
 350 690 l 1
 460 700 l 1
 780 0 l 1
 640 0 l 5
340 700 m 1
 450 690 l 1
 160 0 l 1
 20 0 l 1
 340 700 l 1
EndSplineSet
EndChar

StartChar: V
Encoding: 86 86 10
Width: 780
VWidth: 0
Flags: HMW
AnchorPoint: "ced" 390 0 basechar 0
AnchorPoint: "dot" 389 760 basechar 0
LayerCount: 2
Fore
SplineSet
450 0 m 1
 330 0 l 1
 330 30 l 1
 450 30 l 1
 450 0 l 1
165 700 m 1
 450 30 l 1
 330 0 l 1
 20 700 l 1
 165 700 l 1
450 0 m 1
 330 30 l 1
 615 700 l 5
 760 700 l 1
 450 0 l 1
EndSplineSet
EndChar

StartChar: G
Encoding: 71 71 11
Width: 782
VWidth: 0
Flags: HMW
AnchorPoint: "ced" 425 0 basechar 0
AnchorPoint: "dot" 425 760 basechar 0
LayerCount: 2
Fore
SplineSet
722 390 m 5
 722 270 l 5
 425 270 l 5
 425 390 l 5
 722 390 l 5
722 113 m 1
 592 113 l 1
 592 390 l 5
 722 390 l 5
 722 113 l 1
190 350 m 0
 190 214 274 110 425 110 c 0
 503 110 589 142 642 203 c 1
 722 113 l 1
 657 38 531 -10 425 -10 c 0
 210 -10 60 151 60 350 c 0
 60 549 210 710 425 710 c 0
 551 710 647 662 712 587 c 1
 632 507 l 1
 584 563 503 590 425 590 c 0
 274 590 190 486 190 350 c 0
EndSplineSet
EndChar

StartChar: D
Encoding: 68 68 12
Width: 810
VWidth: 0
Flags: HMW
AnchorPoint: "ced" 335 0 basechar 0
AnchorPoint: "dot" 355 760 basechar 0
LayerCount: 2
Fore
SplineSet
90 700 m 1
 380 700 l 5
 380 580 l 5
 90 580 l 1
 90 700 l 1
90 120 m 1
 380 120 l 5
 380 0 l 5
 90 0 l 1
 90 120 l 1
90 700 m 1
 220 700 l 1
 220 0 l 1
 90 0 l 1
 90 700 l 1
380 120 m 5
 511 120 610 214 610 350 c 4
 610 486 511 580 380 580 c 5
 380 700 l 5
 575 700 740 549 740 350 c 4
 740 151 575 0 380 0 c 5
 380 120 l 5
EndSplineSet
EndChar

StartChar: U
Encoding: 85 85 13
Width: 760
VWidth: 0
Flags: HMW
AnchorPoint: "ced" 380 0 basechar 0
AnchorPoint: "dot" 380 760 basechar 0
LayerCount: 2
Fore
SplineSet
565 290 m 1
 565 700 l 1
 690 700 l 1
 690 280 l 1
 565 290 l 1
70 280 m 1
 70 700 l 1
 195 700 l 1
 195 290 l 1
 70 280 l 1
565 290 m 1
 690 280 l 1
 690 111 559 -10 380 -10 c 0
 201 -10 70 111 70 280 c 1
 195 290 l 1
 195 181 273 115 380 115 c 4
 487 115 565 181 565 290 c 1
EndSplineSet
EndChar

StartChar: o
Encoding: 111 111 14
Width: 650
VWidth: 0
Flags: HMW
AnchorPoint: "ced" 325 0 basechar 0
AnchorPoint: "dot" 325 673 basechar 0
LayerCount: 2
Fore
SplineSet
170 260 m 0
 170 171 228 105 325 105 c 0
 422 105 480 171 480 260 c 0
 480 349 422 415 325 415 c 0
 228 415 170 349 170 260 c 0
45 260 m 0
 45 409 166 530 325 530 c 0
 484 530 605 409 605 260 c 0
 605 111 484 -10 325 -10 c 0
 166 -10 45 111 45 260 c 0
EndSplineSet
EndChar

StartChar: B
Encoding: 66 66 15
Width: 695
VWidth: 0
Flags: HMW
AnchorPoint: "ced" 332 0 basechar 0
AnchorPoint: "dot" 313 760 basechar 0
LayerCount: 2
Fore
SplineSet
365 418 m 1
 448 418 493 432 493 497 c 0
 493 562 448 580 365 580 c 1
 385 700 l 1
 514 700 623 631 623 497 c 0
 623 364 514 330 385 330 c 1
 365 418 l 1
80 700 m 1
 210 700 l 1
 210 0 l 1
 80 0 l 1
 80 700 l 1
100 120 m 1
 385 120 l 1
 405 0 l 1
 100 0 l 1
 100 120 l 1
100 700 m 1
 385 700 l 5
 365 580 l 5
 100 580 l 1
 100 700 l 1
100 418 m 1
 425 418 l 1
 385 298 l 1
 100 298 l 1
 100 418 l 1
385 120 m 1
 468 120 520 135 520 205 c 0
 520 275 468 298 385 298 c 1
 405 385 l 1
 534 385 650 344 650 205 c 0
 650 66 544 0 405 0 c 1
 385 120 l 1
EndSplineSet
EndChar

StartChar: K
Encoding: 75 75 16
Width: 745
VWidth: 0
Flags: HMW
AnchorPoint: "ced" 655 0 basechar 0
AnchorPoint: "dot" 335 760 basechar 0
LayerCount: 2
Fore
SplineSet
266 413 m 1
 410 413 l 1
 740 0 l 1
 596 0 l 1
 266 413 l 1
545 700 m 1
 690 700 l 1
 210 207 l 5
 85 230 l 1
 545 700 l 1
80 700 m 1
 210 700 l 1
 210 0 l 1
 80 0 l 1
 80 700 l 1
EndSplineSet
EndChar

StartChar: R
Encoding: 82 82 17
Width: 718
VWidth: 0
Flags: HMW
AnchorPoint: "ced" 595 0 basechar 0
AnchorPoint: "dot" 345 760 basechar 0
LayerCount: 2
Fore
SplineSet
365 358 m 1
 453 358 513 392 513 467 c 0
 513 542 453 580 365 580 c 1
 385 700 l 1
 534 700 643 602 643 467 c 0
 643 333 534 238 385 238 c 1
 365 358 l 1
85 700 m 5
 215 700 l 5
 215 0 l 5
 85 0 l 5
 85 700 l 5
120 700 m 5
 385 700 l 1
 365 580 l 1
 120 580 l 5
 120 700 l 5
120 358 m 5
 365 358 l 1
 385 238 l 1
 120 238 l 5
 120 358 l 5
303 320 m 1
 448 320 l 1
 688 0 l 1
 543 0 l 1
 303 320 l 1
EndSplineSet
EndChar

StartChar: P
Encoding: 80 80 18
Width: 643
VWidth: 0
Flags: HMW
AnchorPoint: "ced" 145 0 basechar 0
AnchorPoint: "dot" 315 760 basechar 0
LayerCount: 2
Fore
SplineSet
335 358 m 5
 423 358 483 392 483 467 c 4
 483 542 423 580 335 580 c 5
 355 700 l 5
 504 700 613 602 613 467 c 0
 613 333 504 238 355 238 c 5
 335 358 l 5
85 700 m 1
 215 700 l 1
 215 0 l 1
 85 0 l 1
 85 700 l 1
100 700 m 1
 355 700 l 1
 335 580 l 5
 100 580 l 1
 100 700 l 1
100 358 m 1
 335 358 l 5
 355 238 l 1
 100 238 l 1
 100 358 l 1
EndSplineSet
EndChar

StartChar: Q
Encoding: 81 81 19
Width: 849
VWidth: 0
Flags: HMW
AnchorPoint: "ced" 425 0 basechar 0
AnchorPoint: "dot" 425 760 basechar 0
LayerCount: 2
Fore
SplineSet
190 350 m 0
 190 214 284 110 425 110 c 0
 566 110 660 214 660 350 c 0
 660 486 566 590 425 590 c 0
 284 590 190 486 190 350 c 0
60 350 m 0
 60 549 220 710 425 710 c 0
 630 710 790 549 790 350 c 0
 790 151 630 -10 425 -10 c 0
 220 -10 60 151 60 350 c 0
735 -44 m 1
 467 224 l 1
 545 302 l 1
 813 35 l 1
 735 -44 l 1
EndSplineSet
EndChar

StartChar: J
Encoding: 74 74 20
Width: 599
VWidth: 0
Flags: HMW
AnchorPoint: "ced" 255 0 basechar 0
AnchorPoint: "dot" 245 760 basechar 0
LayerCount: 2
Fore
SplineSet
394 260 m 1
 394 700 l 1
 519 700 l 1
 519 260 l 1
 394 260 l 1
394 260 m 1
 519 260 l 1
 519 71 414 -10 255 -10 c 0
 147 -10 56 36 10 157 c 1
 106 222 l 1
 141 139 196 105 255 105 c 0
 332 105 394 151 394 260 c 1
EndSplineSet
EndChar

StartChar: S
Encoding: 83 83 21
Width: 625
VWidth: 0
Flags: HMW
AnchorPoint: "ced" 315 0 basechar 0
AnchorPoint: "dot" 335 760 basechar 0
LayerCount: 2
Fore
SplineSet
460 194 m 1
 585 205 l 1
 585 76 477 -10 328 -10 c 0
 199 -10 112 36 40 113 c 1
 119 200 l 1
 167 146 233 102 336 102 c 0
 419 102 460 144 460 194 c 1
210 512 m 5
 80 504 l 1
 80 640 206 710 325 710 c 0
 444 710 516 674 568 622 c 1
 497 535 l 5
 458 573 403 587 325 587 c 0
 257 587 210 557 210 512 c 5
330 425 m 0
 462.380859375 396.220703125 585 357 585 205 c 1
 460 194 l 1
 460 255 412.692382812 286.458007812 320 305 c 0
 197.844718424 329.435689406 80 368 80 504 c 1
 210 512 l 1
 210 468 232.786132812 446.133789062 330 425 c 0
EndSplineSet
EndChar

StartChar: M
Encoding: 77 77 22
Width: 852
VWidth: 0
Flags: HMW
AnchorPoint: "ced" 710 0 basechar 0
AnchorPoint: "dot" 430 760 basechar 0
LayerCount: 2
Fore
SplineSet
460 187 m 5
 392 187 l 5
 402 320 l 1
 450 320 l 1
 460 187 l 5
642 640 m 1
 652 700 l 1
 772 700 l 1
 772 680 l 1
 642 640 l 1
757 627 m 5
 460 187 l 5
 402 320 l 1
 652 700 l 1
 757 627 l 5
772 680 m 1
 772 0 l 1
 642 0 l 1
 642 640 l 1
 772 680 l 1
210 640 m 1
 80 680 l 1
 80 700 l 1
 200 700 l 1
 210 640 l 1
95 627 m 5
 200 700 l 1
 450 320 l 1
 392 187 l 5
 95 627 l 5
80 680 m 1
 210 640 l 1
 210 0 l 1
 80 0 l 1
 80 680 l 1
EndSplineSet
EndChar

StartChar: Y
Encoding: 89 89 23
Width: 680
VWidth: 0
Flags: HMW
AnchorPoint: "ced" 345 0 basechar 0
AnchorPoint: "dot" 337 760 basechar 0
LayerCount: 2
Fore
SplineSet
275 295 m 1
 405 295 l 1
 405 0 l 1
 275 0 l 1
 275 295 l 1
10 700 m 1
 150 700 l 1
 405 295 l 1
 315 217 l 1
 10 700 l 1
530 700 m 5
 670 700 l 1
 365 217 l 1
 275 295 l 1
 530 700 l 5
EndSplineSet
EndChar

StartChar: W
Encoding: 87 87 24
Width: 1065
VWidth: 0
Flags: HMW
AnchorPoint: "ced" 750 0 basechar 0
AnchorPoint: "dot" 530 760 basechar 0
LayerCount: 2
Fore
SplineSet
460 700 m 1
 605 700 l 1
 571 670 l 5
 494 670 l 5
 460 700 l 1
830 0 m 1
 710 0 l 1
 710 10 l 1
 830 10 l 1
 830 0 l 1
605 700 m 1
 830 10 l 1
 710 0 l 1
 494 670 l 5
 605 700 l 1
830 0 m 1
 710 10 l 1
 920 700 l 1
 1050 700 l 1
 830 0 l 1
355 0 m 1
 235 0 l 1
 235 10 l 1
 355 10 l 1
 355 0 l 1
145 700 m 1
 355 10 l 1
 235 0 l 1
 15 700 l 1
 145 700 l 1
355 0 m 1
 235 10 l 1
 460 700 l 1
 571 670 l 5
 355 0 l 1
EndSplineSet
EndChar

StartChar: N
Encoding: 78 78 25
Width: 790
VWidth: 0
Flags: HMW
AnchorPoint: "ced" 650 0 basechar 0
AnchorPoint: "dot" 400 760 basechar 0
LayerCount: 2
Fore
SplineSet
710 0 m 1
 590 0 l 1
 590 24 l 1
 710 14 l 1
 710 0 l 1
200 700 m 1
 200 680 l 1
 80 680 l 1
 80 700 l 1
 200 700 l 1
80 655 m 5
 200 700 l 1
 710 45 l 1
 590 0 l 1
 80 655 l 5
580 700 m 1
 710 700 l 1
 710 0 l 1
 580 20 l 1
 580 700 l 1
80 700 m 1
 210 680 l 1
 210 0 l 1
 80 0 l 1
 80 700 l 1
EndSplineSet
EndChar

StartChar: X
Encoding: 88 88 26
Width: 750
VWidth: 0
Flags: HMW
AnchorPoint: "ced" 635 0 basechar 0
AnchorPoint: "dot" 374 760 basechar 0
LayerCount: 2
Fore
SplineSet
45 700 m 1
 190 700 l 1
 725 0 l 1
 580 0 l 1
 45 700 l 1
560 700 m 1
 705 700 l 1
 170 0 l 1
 25 0 l 1
 560 700 l 1
EndSplineSet
EndChar

StartChar: Z
Encoding: 90 90 27
Width: 680
VWidth: 0
Flags: HMW
AnchorPoint: "ced" 495 0 basechar 0
AnchorPoint: "dot" 335 760 basechar 0
LayerCount: 2
Fore
SplineSet
595 590 m 1
 585 590 l 1
 585 700 l 1
 595 700 l 1
 595 590 l 1
65 110 m 1
 75 110 l 1
 75 0 l 1
 65 0 l 1
 65 110 l 1
85 700 m 1
 585 700 l 1
 585 580 l 1
 85 580 l 1
 85 700 l 1
75 120 m 1
 615 120 l 1
 615 0 l 1
 75 0 l 1
 75 120 l 1
450 590 m 1
 595 590 l 1
 210 110 l 5
 65 110 l 1
 450 590 l 1
EndSplineSet
EndChar

StartChar: l
Encoding: 108 108 28
Width: 265
VWidth: 0
Flags: HMW
AnchorPoint: "ced" 133 0 basechar 0
AnchorPoint: "dot" 133 793 basechar 0
LayerCount: 2
Fore
SplineSet
70 730 m 1
 195 730 l 1
 195 0 l 1
 70 0 l 1
 70 730 l 1
EndSplineSet
EndChar

StartChar: b
Encoding: 98 98 29
Width: 655
VWidth: 0
Flags: HMW
AnchorPoint: "ced" 351 0 basechar 0
AnchorPoint: "dot" 355 673 basechar 0
LayerCount: 2
Fore
SplineSet
190 260 m 4
 190 174 247 105 340 105 c 4
 433 105 485 174 485 260 c 4
 485 346 433 415 340 415 c 4
 247 415 190 346 190 260 c 4
155 260 m 4
 155 409 206 530 370 530 c 4
 514 530 610 419 610 260 c 4
 610 101 514 -10 370 -10 c 4
 206 -10 155 111 155 260 c 4
65 730 m 5
 190 730 l 5
 190 0 l 5
 65 0 l 5
 65 730 l 5
EndSplineSet
EndChar

StartChar: c
Encoding: 99 99 30
Width: 573
VWidth: 0
Flags: HMW
AnchorPoint: "ced" 325 0 basechar 0
AnchorPoint: "dot" 325 673 basechar 0
LayerCount: 2
Fore
SplineSet
170 260 m 0
 170 171 228 105 325 105 c 0
 384 105 437 130 465 170 c 1
 543 92 l 1
 496 28 422 -10 325 -10 c 0
 166 -10 45 111 45 260 c 0
 45 409 166 530 325 530 c 0
 422 530 495 491 542 428 c 1
 465 350 l 1
 437 390 384 415 325 415 c 0
 228 415 170 349 170 260 c 0
EndSplineSet
EndChar

StartChar: d
Encoding: 100 100 31
Width: 655
VWidth: 0
Flags: HMW
AnchorPoint: "ced" 300 0 basechar 0
AnchorPoint: "dot" 295 673 basechar 0
LayerCount: 2
Fore
SplineSet
465 260 m 4
 465 346 408 415 315 415 c 4
 222 415 169 346 169 260 c 4
 169 174 222 105 315 105 c 4
 408 105 465 174 465 260 c 4
500 260 m 4
 500 111 449 -10 285 -10 c 4
 141 -10 45 101 45 260 c 4
 45 419 141 530 285 530 c 4
 449 530 500 409 500 260 c 4
590 730 m 5
 590 0 l 5
 465 0 l 5
 465 730 l 5
 590 730 l 5
EndSplineSet
EndChar

StartChar: k
Encoding: 107 107 32
Width: 615
VWidth: 0
Flags: HMW
AnchorPoint: "ced" 535 0 basechar 0
AnchorPoint: "dot" 345 673 basechar 0
LayerCount: 2
Fore
SplineSet
225 291 m 1
 350 311 l 1
 610 0 l 1
 472 0 l 1
 225 291 l 1
444 520 m 1
 590 520 l 1
 190 110 l 1
 90 154 l 1
 444 520 l 1
65 730 m 1
 190 730 l 1
 190 0 l 1
 65 0 l 1
 65 730 l 1
EndSplineSet
EndChar

StartChar: e
Encoding: 101 101 33
Width: 615
VWidth: 0
Flags: HMW
AnchorPoint: "ced" 320 0 basechar 0
AnchorPoint: "dot" 310 673 basechar 0
LayerCount: 2
Fore
SplineSet
575 260 m 1
 575 230 l 1
 450 230 l 1
 450 260 l 1
 575 260 l 1
450 230 m 1
 124 230 l 1
 124 317 l 1
 450 317 l 1
 450 230 l 1
450 260 m 1
 450 359 417 415 320 415 c 4
 223 415 170 359 170 260 c 1
 45 260 l 1
 45 419 171 530 320 530 c 4
 469 530 575 419 575 260 c 1
 450 260 l 1
45 260 m 1
 170 260 l 1
 170 161 223 105 312 105 c 0
 376 105 431 118 468 167 c 1
 548 92 l 1
 501 28 417 -10 320 -10 c 4
 161 -10 45 101 45 260 c 1
EndSplineSet
EndChar

StartChar: p
Encoding: 112 112 34
Width: 655
VWidth: 0
Flags: HMW
AnchorPoint: "ced" 355 0 basechar 0
AnchorPoint: "dot" 360 673 basechar 0
LayerCount: 2
Fore
SplineSet
189.999023438 260 m 0
 190 174 247 105 340 105 c 0
 432.999023438 105 486 174 486 260 c 0
 486 346 432.999023438 415 340 415 c 0
 247 415 190 346 189.999023438 260 c 0
154.999023438 259.999023438 m 0
 154.999023438 409 205.999023438 529.999023438 369.999023438 530 c 0
 514 529.999023438 610 418.999023438 610 260 c 0
 609.999023438 101 513.999023438 -10 369.999023438 -10 c 0
 205.999023438 -10 154.999023438 111 154.999023438 259.999023438 c 0
64.9990234375 -210 m 1
 65 520 l 1
 189.999023438 520 l 1
 190 -210 l 1
 64.9990234375 -210 l 1
EndSplineSet
EndChar

StartChar: q
Encoding: 113 113 35
Width: 655
VWidth: 0
Flags: HMW
AnchorPoint: "ced" 300 0 basechar 0
AnchorPoint: "dot" 295 673 basechar 0
LayerCount: 2
Fore
SplineSet
465 260 m 0
 465 346 408 415 315 415 c 0
 222 415 170 346 170 260 c 0
 170 174 222 105 315 105 c 0
 408 105 465 174 465 260 c 0
500 260 m 0
 500 111 449 -10 285 -10 c 0
 141 -10 45 101 45 260 c 0
 45 419 141 530 285 530 c 0
 449 530 500 409 500 260 c 0
590 -210 m 1
 465 -210 l 1
 465 520 l 1
 590 520 l 1
 590 -210 l 1
EndSplineSet
EndChar

StartChar: h
Encoding: 104 104 36
Width: 635
VWidth: 0
Flags: HMW
AnchorPoint: "ced" 505 0 basechar 0
AnchorPoint: "dot" 350 673 basechar 0
LayerCount: 2
Fore
SplineSet
570 320 m 5
 570 0 l 1
 445 0 l 1
 445 300 l 1
 570 320 l 5
70 730 m 1
 195 730 l 1
 195 0 l 1
 70 0 l 1
 70 730 l 1
445 300 m 1
 445 369 420 415 330 415 c 0
 251 415 195 370 195 280 c 1
 160 280 l 1
 160 419 231 530 370 530 c 0
 514 530 570 449 570 320 c 5
 445 300 l 1
EndSplineSet
EndChar

StartChar: n
Encoding: 110 110 37
Width: 635
VWidth: 0
Flags: HMW
AnchorPoint: "ced" 535 0 basechar 0
AnchorPoint: "dot" 330 673 basechar 0
LayerCount: 2
Fore
SplineSet
570 320 m 1
 570 0 l 1
 445 0 l 1
 445 300 l 1
 570 320 l 1
70 520 m 1
 195 520 l 1
 195 0 l 1
 70 0 l 1
 70 520 l 1
445 300 m 1
 445 370 410 415 330 415 c 0
 252 415 195 370 195 280 c 1
 160 280 l 1
 160 419 231 530 380 530 c 0
 514 530 570 449 570 320 c 5
 445 300 l 1
EndSplineSet
EndChar

StartChar: m
Encoding: 109 109 38
Width: 900
VWidth: 0
Flags: HMW
AnchorPoint: "ced" 795 0 basechar 0
AnchorPoint: "dot" 450 673 basechar 0
LayerCount: 2
Fore
SplineSet
855 320 m 5
 855 0 l 1
 730 0 l 1
 730 300 l 1
 855 320 l 5
730 300 m 1
 730 370 705 420 630 420 c 0
 567 420 517 380 517 280 c 1
 482 280 l 1
 482 419 526 530 670 530 c 0
 814 530 855 449 855 320 c 5
 730 300 l 1
517 320 m 5
 517 0 l 1
 393 0 l 1
 393 300 l 1
 517 320 l 5
55 520 m 1
 180 520 l 1
 180 0 l 1
 55 0 l 1
 55 520 l 1
393 300 m 1
 393 370 370 420 295 420 c 0
 232 420 180 370 180 280 c 1
 145 280 l 1
 145 419 191 530 335 530 c 0
 489 530 517 449 517 320 c 5
 393 300 l 1
EndSplineSet
EndChar

StartChar: r
Encoding: 114 114 39
Width: 410
VWidth: 0
Flags: HMW
AnchorPoint: "ced" 130 0 basechar 0
AnchorPoint: "dot" 210 673 basechar 0
LayerCount: 2
Fore
SplineSet
65 520 m 1
 190 520 l 1
 190 0 l 1
 65 0 l 1
 65 520 l 1
390 405 m 1
 370 405 l 2
 256 405 190 370 190 270 c 1
 155 270 l 1
 155 409 201 520 390 520 c 1
 390 405 l 1
EndSplineSet
EndChar

StartChar: u
Encoding: 117 117 40
Width: 635
VWidth: 0
Flags: HMW
AnchorPoint: "ced" 285 0 basechar 0
AnchorPoint: "dot" 305 673 basechar 0
LayerCount: 2
Fore
SplineSet
80 200 m 5
 80 520 l 1
 205 520 l 1
 205 220 l 1
 80 200 l 5
550 0 m 1
 425 0 l 1
 425 520 l 1
 550 520 l 1
 550 0 l 1
205 220 m 1
 205 150 225 105 305 105 c 0
 383 105 425 150 425 240 c 1
 460 240 l 1
 460 101 424 -10 275 -10 c 0
 156 -10 80 71 80 200 c 5
 205 220 l 1
EndSplineSet
EndChar

StartChar: g
Encoding: 103 103 41
Width: 655
VWidth: 0
Flags: HMW
AnchorPoint: "dot" 300 673 basechar 0
LayerCount: 2
Fore
SplineSet
465 260 m 0
 465 346 408 415 315 415 c 0
 222 415 170 346 170 260 c 0
 170 174 222 105 315 105 c 0
 408 105 465 174 465 260 c 0
500 260 m 0
 500 111 449 -10 285 -10 c 0
 141 -10 45 101 45 260 c 0
 45 419 141 530 285 530 c 0
 449 530 500 409 500 260 c 0
333 -105 m 1
 333 -220 l 1
 176 -220 94 -172 47 -108 c 5
 133 -42 l 5
 174 -86 240 -105 333 -105 c 1
590 20 m 1
 465 20 l 1
 465 520 l 1
 590 520 l 1
 590 20 l 1
465 20 m 1
 590 20 l 1
 590 -119 482 -220 333 -220 c 1
 333 -105 l 1
 400 -105 465 -69 465 20 c 1
EndSplineSet
EndChar

StartChar: i
Encoding: 105 105 42
Width: 255
VWidth: 0
Flags: HMW
AnchorPoint: "ced" 125 0 basechar 0
LayerCount: 2
Fore
SplineSet
49 672 m 4
 49 715 84 750 127 750 c 4
 170 750 205 715 205 672 c 4
 205 629 170 594 127 594 c 4
 84 594 49 629 49 672 c 4
65 520 m 1
 190 520 l 1
 190 0 l 1
 65 0 l 1
 65 520 l 1
EndSplineSet
EndChar

StartChar: t
Encoding: 116 116 43
Width: 410
VWidth: 0
Flags: HMW
AnchorPoint: "ced" 267 0 basechar 0
AnchorPoint: "dot" 305 673 basechar 0
LayerCount: 2
Fore
SplineSet
30 520 m 1
 380 520 l 1
 380 405 l 1
 30 405 l 1
 30 520 l 1
225 160 m 1
 100 140 l 1
 100 673 l 1
 225 673 l 1
 225 160 l 1
274 105 m 1
 308 105 324 116 335 130 c 5
 402 42 l 1
 375 13 330 -10 268 -10 c 1
 274 105 l 1
225 160 m 1
 225 130 236 105 274 105 c 1
 268 -10 l 1
 169 -10 100 61 100 140 c 1
 225 160 l 1
EndSplineSet
EndChar

StartChar: a
Encoding: 97 97 44
Width: 580
VWidth: 0
Flags: HMW
AnchorPoint: "ced" 435 0 basechar 0
AnchorPoint: "ring" 275 673 basechar 0
AnchorPoint: "dot" 275 673 basechar 0
LayerCount: 2
Fore
SplineSet
310 302 m 1
 440 302 l 1
 440 218 l 1
 340 218 l 1
 310 302 l 1
390 330 m 1
 390 395 354 415 288 415 c 1
 284 530 l 1
 427 530 515 454 515 330 c 1
 390 330 l 1
288 415 m 1
 234 415 185 402 146 372 c 1
 70 450 l 1
 127 499 182 530 284 530 c 1
 288 415 l 1
390 330 m 1
 515 330 l 1
 515 0 l 1
 390 0 l 1
 390 330 l 1
158 155 m 1
 158 117 197 95 260 95 c 0
 318 95 390 120 390 200 c 5
 425 180 l 1
 425 71 369 -10 230 -10 c 0
 131 -10 33 41 33 150 c 1
 158 155 l 1
310 302 m 1
 340 218 l 1
 231 218 158 210 158 155 c 1
 33 150 l 1
 33 285 173 302 310 302 c 1
EndSplineSet
EndChar

StartChar: j
Encoding: 106 106 45
Width: 255
VWidth: 0
Flags: HMW
LayerCount: 2
Fore
SplineSet
49 672 m 0
 49 715 84 750 127 750 c 0
 170 750 205 715 205 672 c 0
 205 629 170 594 127 594 c 0
 84 594 49 629 49 672 c 0
65 520 m 1
 190 520 l 1
 190 -60 l 1
 65 -40 l 1
 65 520 l 1
12 -95 m 5
 18 -210 l 1
 -39 -210 -89 -192 -116 -158 c 1
 -56 -67 l 1
 -39 -86 -21 -95 12 -95 c 5
65 -40 m 1
 190 -60 l 1
 190 -139 107 -210 18 -210 c 1
 12 -95 l 5
 39 -95 65 -80 65 -40 c 1
EndSplineSet
EndChar

StartChar: s
Encoding: 115 115 46
Width: 520
VWidth: 0
Flags: HMW
AnchorPoint: "ced" 260 0 basechar 0
AnchorPoint: "dot" 260 673 basechar 0
LayerCount: 2
Fore
SplineSet
360 150 m 1
 475 162 l 1
 475 66 409 -10 270 -10 c 0
 181 -10 105 18 30 94 c 1
 103 178 l 1
 161 124 210 105 265 105 c 0
 321 105 360 121 360 150 c 1
181 378 m 1
 56 372 l 1
 56 466 143 530 250 530 c 0
 349 530 416 496 458 448 c 1
 386 370 l 1
 354 402 308 420 260 420 c 0
 202 420 181 397 181 378 c 1
275 327 m 0
 392.390625 310.583007812 475 272 475 162 c 1
 360 150 l 1
 360 186 343.594726562 201.76171875 245 216 c 0
 141.581054688 230.934570312 56 267 56 372 c 1
 181 378 l 1
 181 358 197.280273438 337.869140625 275 327 c 0
EndSplineSet
EndChar

StartChar: v
Encoding: 118 118 47
Width: 590
VWidth: 0
Flags: HMW
AnchorPoint: "ced" 287 0 basechar 0
AnchorPoint: "dot" 273 673 basechar 0
LayerCount: 2
Fore
SplineSet
355 0 m 1
 235 0 l 1
 235 5 l 1
 355 5 l 1
 355 0 l 1
235 5 m 1
 445 520 l 5
 575 520 l 1
 355 0 l 1
 235 5 l 1
15 520 m 1
 145 520 l 1
 355 5 l 1
 235 0 l 1
 15 520 l 1
EndSplineSet
EndChar

StartChar: f
Encoding: 102 102 48
Width: 375
VWidth: 0
Flags: HMW
AnchorPoint: "ced" 160 0 basechar 0
LayerCount: 2
Fore
SplineSet
30 520 m 5
 363 520 l 5
 363 405 l 5
 30 405 l 5
 30 520 l 5
225 570 m 5
 225 0 l 5
 100 0 l 5
 100 590 l 5
 225 570 l 5
283 625 m 5
 267 740 l 5
 329 740 374 718 400 688 c 5
 340 607 l 5
 328 615 312 625 283 625 c 5
225 570 m 5
 100 590 l 5
 100 669 178 740 267 740 c 5
 283 625 l 5
 248 625 225 599 225 570 c 5
EndSplineSet
Substitution2: "fi-1" fi
EndChar

StartChar: y
Encoding: 121 121 49
Width: 579
VWidth: 0
Flags: HMW
AnchorPoint: "dot" 295 673 basechar 0
LayerCount: 2
Fore
SplineSet
20 520 m 1
 150 520 l 1
 374 5 l 1
 249 0 l 1
 20 520 l 1
163 -95 m 1
 169 -210 l 1
 112 -210 62 -184 35 -150 c 1
 87 -62 l 1
 104 -81 124 -95 163 -95 c 1
234 -34 m 2
 439 520 l 1
 564 520 l 1
 349 -60 l 2
 319.508789062 -139.55859375 258 -210 169 -210 c 1
 163 -95 l 1
 200 -95 219.153320312 -74.05078125 234 -34 c 2
EndSplineSet
EndChar

StartChar: w
Encoding: 119 119 50
Width: 795
VWidth: 0
Flags: HMW
AnchorPoint: "ced" 570 0 basechar 0
AnchorPoint: "dot" 398 673 basechar 0
LayerCount: 2
Fore
SplineSet
335 520 m 1
 460 520 l 1
 460 467 l 1
 335 467 l 1
 335 520 l 1
640 0 m 1
 505 0 l 1
 505 5 l 1
 620 25 l 1
 640 0 l 1
535 5 m 1
 640 520 l 1
 775 520 l 1
 640 0 l 1
 535 5 l 1
365 457 m 1
 460 520 l 1
 610 25 l 1
 505 0 l 1
 365 457 l 1
290 0 m 5
 155 0 l 5
 155 25 l 5
 290 5 l 5
 290 0 l 5
185 25 m 5
 335 520 l 1
 430 457 l 1
 290 0 l 5
 185 25 l 5
20 520 m 1
 155 520 l 1
 260 5 l 5
 155 0 l 5
 20 520 l 1
EndSplineSet
EndChar

StartChar: x
Encoding: 120 120 51
Width: 615
VWidth: 0
Flags: HMW
AnchorPoint: "ced" 510 0 basechar 0
AnchorPoint: "dot" 280 673 basechar 0
LayerCount: 2
Fore
SplineSet
15 0 m 1
 430 520 l 1
 580 520 l 5
 165 0 l 5
 15 0 l 1
35 520 m 1
 185 520 l 5
 600 0 l 5
 450 0 l 1
 35 520 l 1
EndSplineSet
EndChar

StartChar: z
Encoding: 122 122 52
Width: 559
VWidth: 0
Flags: HMW
AnchorPoint: "ced" 439.583 0 basechar 0
AnchorPoint: "dot" 279.583 673 basechar 0
LayerCount: 2
Fore
SplineSet
39.5830078125 95 m 1
 59.5830078125 95 l 1
 59.5830078125 0 l 1
 39.5830078125 0 l 1
 39.5830078125 95 l 1
59.5830078125 115 m 1
 509.583007812 115 l 1
 509.583007812 0 l 1
 59.5830078125 0 l 1
 59.5830078125 115 l 1
479.583007812 520 m 1
 499.583007812 520 l 1
 499.583007812 425 l 1
 479.583007812 425 l 1
 479.583007812 520 l 1
59.5830078125 520 m 1
 479.583007812 520 l 1
 479.583007812 405 l 1
 59.5830078125 405 l 1
 59.5830078125 520 l 1
339.583007812 425 m 1
 499.583007812 425 l 1
 199.583007812 95 l 1
 39.5830078125 95 l 1
 339.583007812 425 l 1
EndSplineSet
EndChar

StartChar: zero
Encoding: 48 48 53
Width: 600
VWidth: 0
Flags: HMW
LayerCount: 2
Fore
SplineSet
155 350 m 4
 155 213 188 110 300 110 c 0
 412 110 445 213 445 350 c 0
 445 487 412 590 300 590 c 0
 188 590 155 487 155 350 c 4
25 350 m 4
 25 549 125 710 300 710 c 0
 475 710 575 549 575 350 c 0
 575 151 475 -10 300 -10 c 0
 125 -10 25 151 25 350 c 4
EndSplineSet
EndChar

StartChar: one
Encoding: 49 49 54
Width: 600
VWidth: 0
Flags: HMW
LayerCount: 2
Fore
SplineSet
430 700 m 1
 430 676 l 1
 310 676 l 1
 310 700 l 1
 430 700 l 1
310 700 m 1
 391 606 l 5
 161 446 l 5
 100 540 l 1
 310 700 l 1
300 690 m 1
 430 700 l 1
 430 0 l 1
 300 0 l 1
 300 690 l 1
EndSplineSet
EndChar

StartChar: six
Encoding: 54 54 55
Width: 600
VWidth: 0
Flags: HMW
LayerCount: 2
Fore
SplineSet
170 220 m 1
 115 220 l 1
 115 349 231 445 360 445 c 5
 300 340 l 1
 212 340 170 290 170 220 c 1
170 220 m 0
 170 150 212 100 300 100 c 0
 388 100 430 150 430 220 c 0
 430 290 388 340 300 340 c 1
 360 445 l 1
 459 445 550 349 550 220 c 0
 550 91 449 -10 300 -10 c 0
 151 -10 50 91 50 220 c 0
 50 277.265805412 73.9301886792 327.205660377 108 377 c 2
 329 700 l 1
 469 700 l 1
 207.537109375 351.75390625 l 1
 185.174804688 344.909179688 l 1
 146.650390625 315.858398438 170 271.161132812 170 220 c 0
EndSplineSet
EndChar

StartChar: period
Encoding: 46 46 56
Width: 230
VWidth: 0
Flags: HMW
LayerCount: 2
Fore
SplineSet
30 75 m 4
 30 122 68 160 115 160 c 4
 162 160 200 122 200 75 c 4
 200 28 162 -10 115 -10 c 4
 68 -10 30 28 30 75 c 4
EndSplineSet
EndChar

StartChar: comma
Encoding: 44 44 58
Width: 254
VWidth: 0
Flags: HMW
LayerCount: 2
Fore
SplineSet
40 75 m 0
 40 122 78 160 125 160 c 0
 182 160 215 122 215 75 c 0
 215 55.6748046875 205.03125 28.1279296875 188.743164062 3.60546875 c 2
 100 -130 l 1
 30 -130 l 1
 83.306640625 0.884765625 l 1
 57.44140625 15.447265625 40 43.158203125 40 75 c 0
EndSplineSet
EndChar

StartChar: two
Encoding: 50 50 60
Width: 600
VWidth: 0
Flags: HMW
LayerCount: 2
Fore
SplineSet
50 105 m 1
 70 105 l 1
 70 0 l 1
 50 0 l 1
 50 105 l 1
405 498 m 1
 405 547 369 595 295 595 c 0
 226 595 184 543 149 460 c 1
 50 523 l 1
 92 629 177 710 295 710 c 0
 434 710 530 615 530 496 c 1
 405 498 l 1
70 0 m 1
 70 115 l 1
 550 115 l 1
 550 0 l 1
 70 0 l 1
396 261 m 6
 218 105 l 5
 50 105 l 1
 287 310 l 2
 386.093067538 395.713412849 405 427 405 498 c 1
 530 496 l 1
 530 396 502.174804688 351.017578125 396 261 c 6
EndSplineSet
EndChar

StartChar: three
Encoding: 51 51 62
Width: 600
VWidth: 0
Flags: HMW
LayerCount: 2
Fore
SplineSet
250 404 m 1
 437 404 550 347 550 197 c 0
 550 57 427 -10 300 -10 c 0
 210 -10 116 14 50 99 c 1
 129 177 l 1
 170 122 232 104 290 104 c 4
 363 104 425 128 425 197 c 0
 425 266 373 310 250 310 c 1
 250 404 l 1
75 602 m 1
 124 660 186 710 300 710 c 0
 434 710 520 629 520 530 c 0
 520 411 424 330 250 330 c 1
 250 425 l 1
 370 425 395 472 395 520 c 0
 395 568 360 595 290 595 c 0
 235 595 196 572 156 524 c 1
 75 602 l 1
EndSplineSet
EndChar

StartChar: eight
Encoding: 56 56 63
Width: 600
VWidth: 0
Flags: HMW
LayerCount: 2
Fore
SplineSet
205 510 m 0
 205 462 240 425 300 425 c 0
 360 425 395 462 395 510 c 0
 395 558 360 595 300 595 c 0
 240 595 205 558 205 510 c 0
80 530 m 0
 80 629 176 710 300 710 c 0
 424 710 520 629 520 530 c 0
 520 411 424 340 300 340 c 0
 176 340 80 411 80 530 c 0
50 187 m 0
 50 327 163 394 300 394 c 0
 437 394 550 327 550 187 c 0
 550 67 437 -10 300 -10 c 0
 163 -10 50 67 50 187 c 0
175 207 m 0
 175 138 227 104 300 104 c 0
 373 104 425 138 425 207 c 0
 425 276 373 310 300 310 c 0
 227 310 175 276 175 207 c 0
EndSplineSet
EndChar

StartChar: four
Encoding: 52 52 64
Width: 600
VWidth: 0
Flags: HMW
LayerCount: 2
Fore
SplineSet
40 240 m 1
 60 240 l 5
 60 125 l 1
 40 125 l 1
 40 240 l 1
60 240 m 1
 550 240 l 1
 550 125 l 1
 60 125 l 1
 60 240 l 1
480 700 m 1
 480 676 l 1
 345 676 l 1
 345 700 l 1
 480 700 l 1
345 700 m 1
 440 659 l 1
 145 220 l 1
 40 240 l 1
 345 700 l 1
355 680 m 1
 480 700 l 1
 480 0 l 1
 355 0 l 1
 355 680 l 1
EndSplineSet
EndChar

StartChar: five
Encoding: 53 53 65
Width: 600
VWidth: 0
Flags: HMW
LayerCount: 2
Fore
SplineSet
70 311 m 1
 80 346 l 1
 150 346 l 1
 200 311 l 1
 70 311 l 1
340 461 m 1
 447 461 550 375 550 225 c 4
 550 65 427 -10 300 -10 c 0
 210 -10 116 14 50 99 c 1
 135 182 l 1
 176 127 237 106 300 106 c 0
 363 106 425 143 425 222 c 0
 425 291 393 348 300 348 c 1
 340 461 l 1
70 311 m 1
 130 700 l 1
 245 700 l 1
 195 341 l 1
 70 311 l 1
130 700 m 1
 510 700 l 1
 510 585 l 1
 130 585 l 1
 130 700 l 1
300 348 m 1
 243 348 214 322 200 311 c 1
 140 311 l 1
 170 400 201 461 340 461 c 1
 300 348 l 1
EndSplineSet
EndChar

StartChar: seven
Encoding: 55 55 66
Width: 600
VWidth: 0
Flags: HMW
LayerCount: 2
Fore
SplineSet
551 600 m 1
 281 0 l 5
 154 0 l 5
 424 600 l 1
 551 600 l 1
530 700 m 1
 551 700 l 1
 551 600 l 1
 530 600 l 1
 530 700 l 1
50 700 m 1
 530 700 l 1
 530 585 l 1
 50 585 l 1
 50 700 l 1
EndSplineSet
EndChar

StartChar: exclam
Encoding: 33 33 67
Width: 270
VWidth: 0
Flags: HMW
LayerCount: 2
Fore
SplineSet
66 490 m 1
 204 490 l 1
 177 250 l 1
 93 250 l 1
 66 490 l 1
66 730 m 1
 204 730 l 1
 204 490 l 1
 66 490 l 1
 66 730 l 1
EndSplineSet
Refer: 56 46 N 1 0 0 1 20 0 2
EndChar

StartChar: quotesingle
Encoding: 39 39 69
Width: 240
VWidth: 0
Flags: HMW
LayerCount: 2
Fore
SplineSet
35 655 m 0
 35 702 73 740 120 740 c 0
 167 740 205 702 205 655 c 0
 205 646 204.567382812 634.483398438 201 624 c 6
 152 480 l 1
 88 480 l 1
 39 624 l 6
 35.4326171875 634.483398438 35 646 35 655 c 0
EndSplineSet
EndChar

StartChar: numbersign
Encoding: 35 35 70
Width: 810
VWidth: 0
Flags: HMW
LayerCount: 2
Fore
SplineSet
730 270 m 5
 730 155 l 5
 40 155 l 5
 40 270 l 5
 730 270 l 5
770 545 m 1
 770 430 l 1
 80 430 l 1
 80 545 l 1
 770 545 l 1
545 700 m 1
 665 700 l 1
 545 0 l 1
 425 0 l 1
 545 700 l 1
265 700 m 1
 385 700 l 1
 265 0 l 1
 145 0 l 1
 265 700 l 1
EndSplineSet
EndChar

StartChar: percent
Encoding: 37 37 71
Width: 940
VWidth: 0
Flags: HMW
LayerCount: 2
Fore
SplineSet
640 180 m 0
 640 131 674 95 720 95 c 0
 766 95 800 131 800 180 c 0
 800 229 766 265 720 265 c 0
 674 265 640 229 640 180 c 0
140 520 m 0
 140 471 174 435 220 435 c 0
 266 435 300 471 300 520 c 0
 300 569 266 605 220 605 c 0
 174 605 140 569 140 520 c 0
30 520 m 0
 30 625 115 710 220 710 c 0
 325 710 410 625 410 520 c 0
 410 415 325 330 220 330 c 0
 115 330 30 415 30 520 c 0
530 180 m 0
 530 285 615 370 720 370 c 0
 825 370 910 285 910 180 c 0
 910 75 825 -10 720 -10 c 0
 615 -10 530 75 530 180 c 0
650 700 m 1
 770 700 l 1
 290 0 l 1
 170 0 l 1
 650 700 l 1
EndSplineSet
EndChar

StartChar: dollar
Encoding: 36 36 72
Width: 600
VWidth: 0
Flags: HMW
LayerCount: 2
Fore
SplineSet
281 780 m 1
 351 780 l 1
 351 -80 l 1
 281 -80 l 1
 281 780 l 1
EndSplineSet
Refer: 21 83 N 1 0 0 1 -10 0 2
EndChar

StartChar: asterisk
Encoding: 42 42 73
Width: 324
VWidth: 0
Flags: HMW
LayerCount: 2
Fore
SplineSet
50 475 m 1
 15 535 l 1
 274 685 l 1
 309 625 l 1
 50 475 l 1
15 625 m 1
 50 685 l 1
 309 535 l 1
 274 475 l 1
 15 625 l 1
127 730 m 1
 197 730 l 1
 197 430 l 1
 127 430 l 1
 127 730 l 1
EndSplineSet
EndChar

StartChar: slash
Encoding: 47 47 74
Width: 430
VWidth: 0
Flags: HMW
LayerCount: 2
Fore
SplineSet
340 780 m 1
 450 780 l 1
 90 -80 l 5
 -20 -80 l 1
 340 780 l 1
EndSplineSet
EndChar

StartChar: ampersand
Encoding: 38 38 75
Width: 715
VWidth: 0
Flags: HMW
LayerCount: 2
Fore
SplineSet
305 403 m 0
 381.7890625 423.8046875 405 490 405 530 c 1
 525 530 l 1
 525 435 427.557617188 357.01171875 335 335 c 0
 237.270507812 311.758789062 190 274 190 200 c 5
 70 190 l 1
 70 330 199.364257812 374.379882812 305 403 c 0
265 540 m 1
 145 540 l 1
 145 649 226 710 335 710 c 0
 444 710 525 649 525 530 c 1
 405 530 l 1
 405 579 377 605 335 605 c 4
 298 605 265 584 265 540 c 1
280 291 m 2
 192.19140625 395.72265625 145 460 145 540 c 1
 265 540 l 1
 265 499 297.316523066 437.349819931 380 339 c 2
 665 0 l 1
 525 0 l 1
 280 291 l 2
554 329 m 1
 650 284 l 1
 620 115 489 -10 320 -10 c 0
 171 -10 70 71 70 190 c 1
 190 200 l 5
 190 141 243 105 330 105 c 0
 437 105 524 180 554 329 c 1
EndSplineSet
EndChar

StartChar: parenleft
Encoding: 40 40 76
Width: 275
VWidth: 0
Flags: HMW
LayerCount: 2
Fore
SplineSet
170 750 m 1
 270 700 l 1
 110 440 110 90 270 -170 c 5
 170 -220 l 1
 -30 90 -30 440 170 750 c 1
EndSplineSet
EndChar

StartChar: hyphen
Encoding: 45 45 78
Width: 430
VWidth: 0
Flags: HMW
LayerCount: 2
Fore
SplineSet
65 355 m 5
 365 355 l 5
 365 240 l 1
 65 240 l 1
 65 355 l 5
EndSplineSet
EndChar

StartChar: plus
Encoding: 43 43 79
Width: 510
VWidth: 0
Flags: HMW
LayerCount: 2
Fore
SplineSet
315 589 m 5
 315 134 l 5
 195 134 l 1
 195 589 l 1
 315 589 l 5
30 419 m 1
 480 419 l 1
 480 304 l 1
 30 304 l 1
 30 419 l 1
EndSplineSet
EndChar

StartChar: equal
Encoding: 61 61 80
Width: 510
VWidth: 0
Flags: HMW
LayerCount: 2
Fore
SplineSet
30 295 m 1
 480 295 l 1
 480 180 l 1
 30 180 l 1
 30 295 l 1
30 530 m 5
 480 530 l 5
 480 415 l 1
 30 415 l 1
 30 530 l 5
EndSplineSet
EndChar

StartChar: backslash
Encoding: 92 92 81
Width: 430
VWidth: 0
Flags: HMW
LayerCount: 2
Fore
SplineSet
90 780 m 1
 450 -80 l 1
 340 -80 l 5
 -20 780 l 1
 90 780 l 1
EndSplineSet
EndChar

StartChar: less
Encoding: 60 60 82
Width: 510
VWidth: 0
Flags: HMW
LayerCount: 2
Fore
SplineSet
30 415 m 5
 480 225 l 5
 480 110 l 5
 30 300 l 5
 30 415 l 5
30 415 m 5
 480 605 l 5
 480 490 l 5
 30 300 l 5
 30 415 l 5
EndSplineSet
EndChar

StartChar: question
Encoding: 63 63 84
Width: 555
VWidth: 0
Flags: HMW
LayerCount: 2
Fore
SplineSet
319 452 m 0
 374.67578125 480.341796875 385 508 385 546 c 1
 510 556 l 1
 510 461 478.134765625 411.75 400 374 c 0
 341.237304688 345.609375 325 331 325 250 c 1
 205 250 l 1
 185 400 249.790039062 416.768554688 319 452 c 0
385 546 m 1
 385 588 348 625 279 625 c 0
 206 625 167 590 132 527 c 1
 40 593 l 1
 82 679 162 740 285 740 c 0
 429 740 510 655 510 556 c 1
 385 546 l 1
EndSplineSet
Refer: 56 46 N 1 0 0 1 157 0 2
EndChar

StartChar: at
Encoding: 64 64 85
Width: 1050
VWidth: 0
Flags: HMW
LayerCount: 2
Fore
SplineSet
660 260 m 0
 660 359 592 415 515 415 c 0
 438 415 370 359 370 260 c 0
 370 161 438 105 515 105 c 0
 592 105 660 161 660 260 c 0
695 260 m 0
 695 111 654 -10 495 -10 c 0
 366 -10 250 101 250 260 c 0
 250 419 366 530 495 530 c 0
 654 530 695 409 695 260 c 0
780 520 m 1
 780 120 l 1
 660 100 l 1
 660 520 l 1
 780 520 l 1
55 260 m 0
 55 519 246 730 525 730 c 0
 784 730 995 559 995 300 c 0
 995 63.638671875 873.768554688 -10.2880859375 797.8671875 -10.2880859375 c 0
 703.793945312 -10.2880859375 660 43.19921875 660 100 c 1
 780 120 l 1
 780 60.53515625 790.893554688 32.859375 827.37890625 32.859375 c 0
 878.646484375 32.859375 964 115.765625 964 300 c 0
 964 543 768 701 525 701 c 0
 262 701 86 503 86 260 c 0
 86 17 282 -181 525 -181 c 1
 525 -210 l 1
 266 -210 55 1 55 260 c 0
EndSplineSet
EndChar

StartChar: bracketleft
Encoding: 91 91 86
Width: 315
VWidth: 0
Flags: HMW
LayerCount: 2
Fore
SplineSet
145 614 m 1
 145 730 l 1
 295 730 l 1
 295 614 l 1
 145 614 l 1
145 -200 m 1
 145 -84 l 5
 295 -84 l 5
 295 -200 l 1
 145 -200 l 1
45 730 m 1
 165 730 l 1
 165 -200 l 1
 45 -200 l 1
 45 730 l 1
EndSplineSet
EndChar

StartChar: asciicircum
Encoding: 94 94 88
Width: 510
VWidth: 0
Flags: HMW
LayerCount: 2
Fore
SplineSet
380 430 m 1
 190 730 l 1
 320 730 l 1
 490 430 l 1
 380 430 l 1
190 730 m 1
 320 730 l 1
 130 430 l 5
 20 430 l 1
 190 730 l 1
EndSplineSet
EndChar

StartChar: underscore
Encoding: 95 95 89
Width: 600
VWidth: 0
Flags: HMW
LayerCount: 2
Fore
SplineSet
-2 -60 m 5
 602 -60 l 5
 602 -180 l 1
 -2 -180 l 1
 -2 -60 l 5
EndSplineSet
EndChar

StartChar: braceleft
Encoding: 123 123 90
Width: 369
VWidth: 0
Flags: HMW
LayerCount: 2
Fore
SplineSet
55 325 m 1
 73 325 l 1
 73 205 l 1
 55 205 l 1
 55 325 l 1
137 150 m 5
 257 150 l 5
 257 -10 l 1
 137 -50 l 1
 137 150 l 5
137 580 m 1
 257 540 l 1
 257 380 l 1
 137 380 l 1
 137 580 l 1
137 380 m 1
 257 380 l 1
 257 281 180 230 61 230 c 5
 55 325 l 1
 123 325 137 340 137 380 c 1
137 150 m 1
 137 190 123 205 55 205 c 1
 61 300 l 1
 180 300 257 249 257 150 c 1
 137 150 l 1
257 540 m 1
 137 580 l 1
 137 659 214 730 333 730 c 1
 339 615 l 1
 261 615 257 580 257 540 c 1
257 -10 m 1
 257 -50 261 -85 339 -85 c 1
 333 -200 l 1
 214 -200 137 -129 137 -50 c 1
 257 -10 l 1
EndSplineSet
EndChar

StartChar: bar
Encoding: 124 124 92
Width: 320
VWidth: 0
Flags: HMW
LayerCount: 2
Fore
SplineSet
205 780 m 5
 205 -80 l 5
 115 -80 l 1
 115 780 l 1
 205 780 l 5
EndSplineSet
EndChar

StartChar: asciitilde
Encoding: 126 126 93
Width: 470
VWidth: 0
Flags: HMW
LayerCount: 2
Fore
SplineSet
125 164 m 1
 45 194 l 1
 49.5654296875 272.260742188 96.859375 320.638671875 148.23046875 320.638671875 c 0
 211.844726562 320.638671875 257.365234375 256.962890625 301.607421875 256.962890625 c 0
 346.108398438 256.962890625 355 286.58984375 355 324 c 1
 425 294 l 1
 420.434570312 205.739257812 373.989257812 167.361328125 323.821289062 167.361328125 c 0
 262.262695312 167.361328125 219.831054688 231.037109375 177.247070312 231.037109375 c 4
 133.446289062 231.037109375 125 201.41015625 125 164 c 1
EndSplineSet
EndChar

StartChar: tilde
Encoding: 732 732 98
Width: 500
VWidth: 0
Flags: HMW
AnchorPoint: "dot" 250 610 basechar 0
LayerCount: 2
Fore
SplineSet
140 600 m 5
 49 620 l 1
 53.5654296875 698.260742188 111.859375 746.638671875 163.23046875 746.638671875 c 0
 226.844726562 746.638671875 262.365234375 702.962890625 306.607421875 702.962890625 c 0
 341.108398438 702.962890625 370 712.58984375 370 740 c 1
 460 720 l 1
 455.434570312 631.739257812 388.989257812 593.361328125 338.821289062 593.361328125 c 0
 277.262695312 593.361328125 244.831054688 637.037109375 202.247070312 637.037109375 c 4
 168.446289062 637.037109375 140 627.41015625 140 600 c 5
EndSplineSet
EndChar

StartChar: dotaccent
Encoding: 729 729 99
Width: 500
VWidth: 0
Flags: HMW
AnchorPoint: "dot" 250 590 basechar 0
LayerCount: 2
Fore
SplineSet
164 666 m 0
 164 713 203 752 250 752 c 0
 297 752 336 713 336 666 c 0
 336 619 297 580 250 580 c 0
 203 580 164 619 164 666 c 0
EndSplineSet
EndChar

StartChar: ring
Encoding: 730 730 100
Width: 500
VWidth: 0
Flags: HMW
AnchorPoint: "ring" 250 590 basechar 0
LayerCount: 2
Fore
SplineSet
200 680 m 0
 200 651 221 630 250 630 c 0
 279 630 300 651 300 680 c 0
 300 709 279 730 250 730 c 4
 221 730 200 709 200 680 c 0
150 680 m 0
 150 735 195 780 250 780 c 0
 305 780 350 735 350 680 c 0
 350 625 305 580 250 580 c 0
 195 580 150 625 150 680 c 0
EndSplineSet
EndChar

StartChar: breve
Encoding: 728 728 101
Width: 500
VWidth: 0
Flags: HMW
AnchorPoint: "dot" 244 559 basechar 0
LayerCount: 2
Fore
SplineSet
244 679 m 1
 204 679 179 693 179 741 c 1
 64 735 l 1
 64 636 135 559 244 559 c 1
 244 679 l 1
244 679 m 5
 244 559 l 1
 353 559 424 636 424 735 c 1
 309 741 l 5
 309 693 286 679 244 679 c 5
EndSplineSet
EndChar

StartChar: circumflex
Encoding: 710 710 102
Width: 500
VWidth: 0
Flags: HMW
AnchorPoint: "dot" 250 630 basechar 0
LayerCount: 2
Fore
SplineSet
315 630 m 1
 215 730 l 1
 305 730 l 1
 405 630 l 1
 315 630 l 1
195 730 m 5
 285 730 l 1
 185 630 l 1
 95 630 l 5
 195 730 l 5
EndSplineSet
EndChar

StartChar: caron
Encoding: 711 711 103
Width: 500
VWidth: 0
Flags: HMW
AnchorPoint: "dot" 250 630 basechar 0
LayerCount: 2
Fore
SplineSet
185 730 m 1
 285 630 l 1
 195 630 l 5
 95 730 l 5
 185 730 l 1
305 630 m 1
 215 630 l 1
 315 730 l 1
 405 730 l 1
 305 630 l 1
EndSplineSet
EndChar

StartChar: cent
Encoding: 162 162 105
Width: 600
VWidth: 0
Flags: HMW
LayerCount: 2
Fore
SplineSet
295 600 m 5
 355 600 l 1
 355 -80 l 1
 295 -80 l 5
 295 600 l 5
EndSplineSet
Refer: 30 99 N 1 0 0 1 10 0 2
EndChar

StartChar: sterling
Encoding: 163 163 108
Width: 600
VWidth: 0
Flags: HMW
LayerCount: 2
Fore
SplineSet
170 45 m 1
 57 -1 l 1
 227 272.541992188 95 278.921875 95 530 c 1
 215 520 l 1
 215 336.112304688 320 219.735351562 170 45 c 1
145 -25 m 1
 57 -1 l 1
 131.565429688 77.2607421875 186.859375 101.638671875 258.23046875 101.638671875 c 0
 321.844726562 101.638671875 362.365234375 67.962890625 406.607421875 67.962890625 c 0
 451.108398438 67.962890625 470 88.58984375 490 126 c 5
 555 70 l 1
 530.434570312 -18.2607421875 463.989257812 -31.638671875 413.821289062 -31.638671875 c 0
 332.262695312 -31.638671875 274.831054688 2.037109375 232.247070312 2.037109375 c 0
 188.446289062 2.037109375 165 -5.58984375 145 -25 c 1
45 400 m 1
 343 400 l 1
 343 285 l 1
 45 285 l 1
 45 400 l 1
305 595 m 1
 299 710 l 1
 381 710 450 669 487 610 c 1
 421 527 l 1
 394 566 349 595 305 595 c 1
215 520 m 1
 95 530 l 1
 95 639 166 710 299 710 c 1
 305 595 l 1
 250 595 215 569 215 520 c 1
EndSplineSet
EndChar

StartChar: currency
Encoding: 164 164 109
Width: 600
VWidth: 0
Flags: HMW
LayerCount: 2
Fore
SplineSet
123 209 m 5
 194 138 l 1
 98 42 l 1
 27 113 l 5
 123 209 l 5
401 143 m 1
 471 214 l 1
 572 113 l 1
 502 42 l 1
 401 143 l 1
502 588 m 1
 573 517 l 1
 460 404 l 1
 389 475 l 1
 502 588 l 1
27 517 m 1
 98 588 l 1
 211 475 l 1
 140 404 l 1
 27 517 l 1
188 315 m 0
 188 248 234 199 300 199 c 0
 376 199 412 248 412 315 c 0
 412 382 366 431 300 431 c 0
 234 431 188 382 188 315 c 0
84 315 m 0
 84 434 181 531 300 531 c 0
 419 531 516 434 516 315 c 0
 516 196 419 99 300 99 c 0
 181 99 84 196 84 315 c 0
EndSplineSet
EndChar

StartChar: brokenbar
Encoding: 166 166 111
Width: 300
VWidth: 0
Flags: HMW
LayerCount: 2
Fore
SplineSet
185 460 m 5
 115 460 l 5
 115 780 l 1
 185 780 l 1
 185 460 l 5
185 280 m 1
 185 -80 l 1
 115 -80 l 1
 115 280 l 1
 185 280 l 1
EndSplineSet
EndChar

StartChar: section
Encoding: 167 167 112
Width: 520
VWidth: 0
Flags: HMW
LayerCount: 2
Fore
SplineSet
365 140 m 1
 485 140 l 1
 485 61 414 -10 275 -10 c 0
 166 -10 100 37 45 104 c 1
 110 185 l 1
 156 135 217 105 275 105 c 0
 338 105 365 118 365 140 c 1
280 307 m 0
 397 288 485 260 485 140 c 1
 365 140 l 1
 365 160 358.594726562 180.76171875 250 196 c 0
 146.522460938 210.520507812 10 328 150 473 c 1
 230 473 l 1
 130 373 182.280273438 322.869140625 280 307 c 0
180 558 m 1
 80 563 l 1
 80 659 166 710 275 710 c 0
 384 710 436 670 478 628 c 1
 408 547 l 5
 370 580 323 595 275 595 c 0
 217 595 180 585 180 558 c 1
300 508 m 0
 417 489 555 400 415 250 c 1
 335 250 l 1
 435 340 378.594726562 401.76171875 270 417 c 0
 166.522460938 431.520507812 80 468 80 563 c 1
 180 558 l 1
 180 538 202.280273438 523.869140625 300 508 c 0
EndSplineSet
EndChar

StartChar: copyright
Encoding: 169 169 114
Width: 850
VWidth: 0
Flags: HMW
LayerCount: 2
Fore
SplineSet
113 350 m 0
 113 174 254 30 425 30 c 0
 596 30 737 174 737 350 c 0
 737 526 596 670 425 670 c 0
 254 670 113 526 113 350 c 0
70 350 m 0
 70 549 230 710 425 710 c 0
 620 710 780 549 780 350 c 0
 780 151 620 -10 425 -10 c 0
 230 -10 70 151 70 350 c 0
EndSplineSet
Refer: 8 67 N 0.5 0 0 0.5 220.5 175 2
EndChar

StartChar: registered
Encoding: 174 174 116
Width: 850
VWidth: 0
Flags: HMW
LayerCount: 2
Fore
SplineSet
113 350 m 0
 113 174 254 30 425 30 c 0
 596 30 737 174 737 350 c 0
 737 526 596 670 425 670 c 0
 254 670 113 526 113 350 c 0
70 350 m 0
 70 549 230 710 425 710 c 0
 620 710 780 549 780 350 c 0
 780 151 620 -10 425 -10 c 0
 230 -10 70 151 70 350 c 0
EndSplineSet
Refer: 17 82 S 0.5 0 0 0.5 252 175 2
EndChar

StartChar: degree
Encoding: 176 176 119
Width: 400
VWidth: 0
Flags: HMW
LayerCount: 2
Fore
SplineSet
130 680 m 0
 130 641 161 610 200 610 c 0
 239 610 270 641 270 680 c 0
 270 719 239 750 200 750 c 0
 161 750 130 719 130 680 c 0
100 680 m 0
 100 735 145 780 200 780 c 0
 255 780 300 735 300 680 c 0
 300 625 255 580 200 580 c 0
 145 580 100 625 100 680 c 0
EndSplineSet
EndChar

StartChar: mu
Encoding: 181 181 120
Width: 635
VWidth: 0
Flags: HMW
LayerCount: 2
Fore
SplineSet
80 220 m 1
 200 220 l 5
 200 -198 l 5
 80 -198 l 1
 80 220 l 1
EndSplineSet
Refer: 40 117 N 1 0 0 1 0 0 2
EndChar

StartChar: grave
Encoding: 96 96 123
Width: 320
VWidth: 0
Flags: HMW
AnchorPoint: "dot" 200 590 basechar 0
LayerCount: 2
Fore
SplineSet
170 590 m 5
 50 730 l 5
 190 730 l 1
 270 590 l 1
 170 590 l 5
EndSplineSet
EndChar

StartChar: acute
Encoding: 180 180 124
Width: 320
VWidth: 0
Flags: HMW
AnchorPoint: "dot" 120 590 basechar 0
LayerCount: 2
Fore
SplineSet
140 590 m 1
 60 590 l 5
 140 730 l 5
 260 730 l 1
 140 590 l 1
EndSplineSet
EndChar

StartChar: logicalnot
Encoding: 172 172 126
Width: 540
VWidth: 0
Flags: HMW
LayerCount: 2
Fore
SplineSet
405 455 m 5
 475 455 l 5
 475 275 l 1
 405 275 l 1
 405 455 l 5
EndSplineSet
Refer: 78 45 N 1.13333 0 0 1 -8.66667 100 2
EndChar

StartChar: macron
Encoding: 175 175 127
Width: 300
VWidth: 0
Flags: HMW
LayerCount: 2
Fore
SplineSet
-2 800 m 1
 302 800 l 5
 302 720 l 5
 -2 720 l 1
 -2 800 l 1
EndSplineSet
EndChar

StartChar: paragraph
Encoding: 182 182 130
Width: 600
VWidth: 0
Flags: HMW
LayerCount: 2
Fore
SplineSet
445 700 m 1
 445 656 l 1
 353 656 l 1
 353 700 l 1
 445 700 l 1
525 700 m 1
 525 0 l 1
 445 0 l 1
 445 700 l 1
 525 700 l 1
375 700 m 1
 375 0 l 1
 295 0 l 1
 295 700 l 1
 375 700 l 1
295 260 m 1
 196 260 75 351 75 480 c 0
 75 609 196 700 295 700 c 1
 295 520 295 440 295 260 c 1
EndSplineSet
EndChar

StartChar: cedilla
Encoding: 184 184 131
Width: 320
VWidth: 0
Flags: HMW
AnchorPoint: "ced" 146 -1 basechar 0
LayerCount: 2
Fore
SplineSet
84 30 m 1
 124 30 l 1
 174 -4 249 -44 249 -112 c 0
 249 -169 227 -204 150 -204 c 4
 103 -204 75 -180 54 -165 c 1
 76 -95 l 1
 92 -108 113 -120 133 -120 c 0
 159 -120 168 -109 168 -89 c 0
 168 -64 131 -9 84 30 c 1
EndSplineSet
EndChar

StartChar: dotlessi
Encoding: 305 305 225
Width: 270
VWidth: 0
Flags: HMW
AnchorPoint: "ced" 135 0 basechar 0
LayerCount: 2
Fore
SplineSet
75 520 m 5
 195 520 l 1
 195 0 l 1
 75 0 l 5
 75 520 l 5
EndSplineSet
EndChar

StartChar: uni0237
Encoding: 567 567 349
Width: 270
VWidth: 0
Flags: HMW
LayerCount: 2
Fore
SplineSet
79 520 m 1
 199 520 l 1
 199 -60 l 1
 79 -41 l 5
 79 520 l 1
38 -96 m 5
 44 -210 l 1
 -13 -210 -63 -194 -90 -160 c 1
 -52 -62 l 5
 -35 -81 -5 -96 38 -96 c 5
79 -41 m 5
 199 -60 l 1
 199 -139 143 -210 44 -210 c 1
 38 -96 l 5
 75 -96 79 -81 79 -41 c 5
EndSplineSet
EndChar

StartChar: kgreenlandic
Encoding: 312 312 573
Width: 590
VWidth: 0
Flags: HMW
AnchorPoint: "dot" 325 673 basechar 0
AnchorPoint: "ced" 515 0 basechar 0
LayerCount: 2
Fore
SplineSet
245 291 m 1
 345 305 l 5
 565 0 l 5
 455 0 l 1
 245 291 l 1
430 520 m 1
 545 520 l 5
 185 110 l 5
 110 154 l 1
 430 520 l 1
85 520 m 1
 185 520 l 5
 185 0 l 5
 85 0 l 1
 85 520 l 1
EndSplineSet
EndChar

StartChar: ogonek
Encoding: 731 731 574
Width: 320
VWidth: 0
Flags: HMW
AnchorPoint: "ced" 149 0 basechar 0
LayerCount: 2
Fore
SplineSet
209 30 m 1
 162 -9 115 -64 115 -89 c 0
 115 -111 129 -120 160 -120 c 0
 190 -120 199 -113 217 -100 c 5
 239 -165 l 1
 218 -180 190 -204 143 -204 c 0
 76 -204 34 -169 34 -112 c 0
 34 -54 119 -4 169 30 c 1
 209 30 l 1
EndSplineSet
EndChar

StartChar: AE
Encoding: 198 198 582
Width: 1090
VWidth: 0
Flags: HMW
LayerCount: 2
Fore
SplineSet
440 700 m 1
 565 700 l 1
 560 580 l 1
 440 580 l 1
 440 700 l 1
204 260 m 1
 596 260 l 1
 596 145 l 5
 204 145 l 5
 204 260 l 1
440 700 m 1
 555 690 l 1
 165 0 l 1
 40 0 l 1
 440 700 l 1
EndSplineSet
Refer: 0 69 N 1 0 0 1 430 0 2
EndChar

StartChar: fi
Encoding: 64257 64257 585
Width: 405
VWidth: 0
Flags: HMW
AnchorPoint: "ced" 175 0 basechar 0
LayerCount: 2
Fore
SplineSet
45 520 m 1
 378 520 l 1
 378 405 l 1
 45 405 l 1
 45 520 l 1
240 570 m 1
 240 0 l 1
 115 0 l 1
 115 590 l 1
 240 570 l 1
240 570 m 1
 115 590 l 1
 115 669 193 740 282 740 c 1
 298 625 l 1
 263 625 240 599 240 570 c 1
298 625 m 1
 282 740 l 1
 309.815114955 740 344.208984375 735.572265625 365 717.98046875 c 1
 365 607 l 5
 353 615 327 625 298 625 c 1
EndSplineSet
EndChar
